<?xml version="1.0"?>
<svg version="1.1" xmlns="http://www.w3.org/2000/svg" width="200px" height="40px" style=""><path fill="#2e00fa" d="M17.8935546875,15.8251953125q0-0.17578125,0.16845703125-0.263671875t0.3662109375-0.1318359375t0.35888671875-0.0439453125l0.1611328125,0q0.5126953125,0,0.73974609375,0.234375t0.54931640625,0.6005859375q2.197265625,3.1787109375,4.0283203125,6.54052734375t3.5302734375,6.80419921875q0.146484375-4.013671875,0.30029296875-8.07861328125t0.38818359375-8.06396484375q0-0.17578125,0.16845703125-0.29296875t0.380859375-0.17578125t0.43212890625-0.0732421875t0.3369140625-0.0146484375q0.17578125,0,0.38818359375,0.0146484375t0.4248046875,0.087890625t0.3515625,0.17578125t0.13916015625,0.2783203125q0.05859375,0.6298828125,0.06591796875,1.26708984375t0.00732421875,1.26708984375q0,4.716796875-0.205078125,9.2431640625t-0.205078125,9.140625l0,1.0546875q0,0.05859375-0.05859375,0.17578125q0.029296875,0.1171875,0.087890625,0.25634765625t0.05859375,0.19775390625q0,0.234375-0.24169921875,0.3515625t-0.52734375,0.18310546875t-0.50537109375,0.06591796875t-0.1611328125,0q-0.7470703125,0-1.259765625-0.41015625t-0.5126953125-0.9814453125q-1.083984375-2.431640625-2.16064453125-4.82666015625t-2.24853515625-4.76806640625q-0.7470703125-1.494140625-1.50146484375-2.99560546875t-1.61865234375-2.90771484375q0.029296875,0.029296875,0.029296875,0.087890625q0.146484375,1.46484375,0.31494140625,2.92236328125t0.25634765625,2.92236328125q0.05859375,1.259765625,0.1318359375,2.548828125t0.234375,2.548828125q0,0.4833984375-0.30029296875,0.615234375t-0.69580078125,0.1318359375q-0.3369140625,0-0.63720703125-0.087890625t-0.35888671875-0.439453125q0-1.34765625-0.1025390625-2.86376953125t-0.1904296875-3.05419921875q-0.146484375-2.0361328125-0.38818359375-4.13818359375t-0.24169921875-4.10888671875q0-0.087890625,0.0146484375-0.18310546875t0.0146484375-0.21240234375q-0.087890625-0.146484375-0.19775390625-0.3076171875t-0.10986328125-0.29296875z M34.163134765625,29.5361328125q0-0.99609375,0.27099609375-1.9189453125t0.81298828125-1.64794921875t1.35498046875-1.1572265625t1.88232421875-0.43212890625q0.6591796875,0,1.45751953125,0.19775390625t1.50146484375,0.5859375t1.171875,0.98876953125t0.46875,1.376953125q0,0.3662109375-0.12451171875,0.556640625t-0.50537109375,0.1904296875l-0.1611328125-0.029296875q0.4248046875,1.142578125,0.732421875,2.34375t0.6005859375,2.40234375q0.1171875,0.234375,0.17578125,0.41748046875t0.05859375,0.35888671875q0,0.234375-0.1318359375,0.38818359375t-0.34423828125,0.22705078125t-0.439453125,0.1025390625t-0.40283203125,0.029296875q-0.6298828125,0-0.94482421875-0.2197265625t-0.4541015625-0.6005859375t-0.16845703125-0.85693359375t-0.1171875-0.95947265625q-0.17578125,0.5712890625-0.46142578125,1.11328125t-0.673828125,0.97412109375t-0.91552734375,0.6884765625t-1.1865234375,0.25634765625q-0.966796875,0-1.6259765625-0.556640625t-1.06201171875-1.36962890625t-0.5859375-1.73583984375t-0.18310546875-1.7138671875z M36.243212890625,29.3310546875q0,0.5419921875,0.0732421875,1.142578125t0.24169921875,1.1865234375t0.43212890625,1.10595703125t0.6591796875,0.91552734375q0.7177734375-0.7763671875,1.06201171875-1.8896484375t0.615234375-2.14599609375t0.615234375-1.7724609375t1.06201171875-0.73974609375q0.4541015625,0,0.76171875,0.1611328125q-0.146484375-0.3662109375-0.4833984375-0.71044921875t-0.75439453125-0.6298828125t-0.8642578125-0.46875t-0.84228515625-0.18310546875q-0.1171875,0-0.27099609375,0.03662109375t-0.24169921875,0.00732421875q-0.6005859375,0.17578125-0.98876953125,0.60791015625t-0.6298828125,1.01806640625t-0.34423828125,1.201171875t-0.1025390625,1.1572265625z M46.25791015625,24.0869140625q0-0.1171875,0.13916015625-0.21240234375t0.31494140625-0.13916015625t0.35888671875-0.05859375t0.27099609375-0.0146484375q0.6591796875,0,1.1279296875,0.5859375t0.81298828125,1.50146484375t0.5859375,2.021484375t0.46142578125,2.20458984375t0.43212890625,2.01416015625t0.47607421875,1.41357421875q0.4541015625-0.8935546875,0.82763671875-2.1533203125t0.6884765625-2.607421875t0.556640625-2.65869140625t0.38818359375-2.29248046875q0.05859375-0.263671875,0.3662109375-0.32958984375t0.5126953125-0.06591796875q0.3369140625,0,0.5859375,0.09521484375t0.2490234375,0.41748046875q0,0.5419921875-0.1318359375,1.47216796875t-0.35888671875,2.08740234375t-0.52734375,2.373046875t-0.64453125,2.30712890625t-0.7177734375,1.93359375t-0.73974609375,1.19384765625q-0.17578125,0.205078125-0.54931640625,0.28564453125t-0.62255859375,0.08056640625q-0.8642578125,0-1.435546875-0.4541015625l0,0.029296875q-0.8935546875-0.8349609375-1.318359375-2.0361328125t-0.615234375-2.5048828125t-0.34423828125-2.5927734375t-0.52001953125-2.34375q-0.05859375-0.1171875-0.146484375-0.34423828125t-0.205078125-0.4541015625t-0.19775390625-0.43212890625t-0.08056640625-0.322265625z M57.847314453125,14.32373046875q-0.03662109375-0.44677734375,0.05859375-0.7763671875t0.380859375-0.5419921875t0.91552734375-0.21240234375l2.3583984375,0q0.4833984375,0,1.26708984375,0.05126953125t1.6845703125,0.15380859375t1.79443359375,0.31494140625t1.63330078125,0.52734375t1.201171875,0.7763671875t0.46142578125,1.09130859375q0,0.8935546875-0.52001953125,1.67724609375t-1.3037109375,1.41357421875t-1.6552734375,1.12060546875t-1.56005859375,0.88623046875q2.724609375,0.6005859375,4.2626953125,2.490234375t1.5380859375,4.716796875q0,1.494140625-0.5712890625,2.95166015625t-1.56005859375,2.62939453125t-2.34375,1.8896484375t-2.90771484375,0.7177734375q-0.205078125,0-0.46142578125-0.0439453125t-0.46875-0.13916015625t-0.3662109375-0.27099609375t-0.15380859375-0.4541015625q0-1.2890625,1.3916015625-1.2890625q0.234375,0,0.54931640625,0.06591796875t0.49072265625,0.27099609375q0.8056640625-0.3369140625,1.47216796875-1.0693359375t1.1279296875-1.63330078125t0.7177734375-1.8896484375t0.25634765625-1.79443359375q0-0.966796875-0.28564453125-1.97021484375t-0.82763671875-1.8603515625t-1.3330078125-1.44287109375t-1.81640625-0.732421875q-0.263671875-0.029296875-0.57861328125-0.0439453125l-0.6298828125-0.029296875t-0.615234375-0.087890625t-0.52001953125-0.234375q0.1171875,2.431640625,0.30029296875,4.8486328125t0.49072265625,4.8486328125q0.1171875,0.1171875,0.1611328125,0.34423828125t0.0732421875,0.4833984375t0.029296875,0.49072265625l0,0.3955078125q0,0.263671875-0.17578125,0.43212890625t-0.41748046875,0.27099609375t-0.5126953125,0.1318359375t-0.47607421875,0.029296875q-0.6591796875,0-1.0107421875-0.17578125t-0.498046875-0.5126953125t-0.1904296875-0.76904296875t-0.0732421875-0.94482421875q-0.3955078125-4.0869140625-0.5712890625-8.0859375t-0.17578125-8.0859375q0-0.4833984375-0.03662109375-0.93017578125z M60.549951171875,13.701171875q0,1.8017578125,0.1171875,3.61083984375t0.205078125,3.61083984375q0.6591796875-0.3955078125,1.728515625-0.93017578125t2.07275390625-1.17919921875t1.72119140625-1.4208984375t0.7177734375-1.6845703125q0-0.7177734375-0.849609375-1.09130859375t-1.9775390625-0.556640625t-2.20458984375-0.22705078125t-1.53076171875-0.1318359375z M73.3478515625,29.5361328125q0-0.99609375,0.27099609375-1.9189453125t0.81298828125-1.64794921875t1.35498046875-1.1572265625t1.88232421875-0.43212890625q0.6591796875,0,1.45751953125,0.19775390625t1.50146484375,0.5859375t1.171875,0.98876953125t0.46875,1.376953125q0,0.3662109375-0.12451171875,0.556640625t-0.50537109375,0.1904296875l-0.1611328125-0.029296875q0.4248046875,1.142578125,0.732421875,2.34375t0.6005859375,2.40234375q0.1171875,0.234375,0.17578125,0.41748046875t0.05859375,0.35888671875q0,0.234375-0.1318359375,0.38818359375t-0.34423828125,0.22705078125t-0.439453125,0.1025390625t-0.40283203125,0.029296875q-0.6298828125,0-0.94482421875-0.2197265625t-0.4541015625-0.6005859375t-0.16845703125-0.85693359375t-0.1171875-0.95947265625q-0.17578125,0.5712890625-0.46142578125,1.11328125t-0.673828125,0.97412109375t-0.91552734375,0.6884765625t-1.1865234375,0.25634765625q-0.966796875,0-1.6259765625-0.556640625t-1.06201171875-1.36962890625t-0.5859375-1.73583984375t-0.18310546875-1.7138671875z M75.4279296875,29.3310546875q0,0.5419921875,0.0732421875,1.142578125t0.24169921875,1.1865234375t0.43212890625,1.10595703125t0.6591796875,0.91552734375q0.7177734375-0.7763671875,1.06201171875-1.8896484375t0.615234375-2.14599609375t0.615234375-1.7724609375t1.06201171875-0.73974609375q0.4541015625,0,0.76171875,0.1611328125q-0.146484375-0.3662109375-0.4833984375-0.71044921875t-0.75439453125-0.6298828125t-0.8642578125-0.46875t-0.84228515625-0.18310546875q-0.1171875,0-0.27099609375,0.03662109375t-0.24169921875,0.00732421875q-0.6005859375,0.17578125-0.98876953125,0.60791015625t-0.6298828125,1.01806640625t-0.34423828125,1.201171875t-0.1025390625,1.1572265625z M86.043212890625,25.4345703125q0-0.6005859375,0.21240234375-1.0107421875t0.90087890625-0.41015625q0.263671875,0,0.6591796875,0.08056640625t0.4541015625,0.40283203125q0.146484375,0.8642578125,0.1611328125,1.875t0.1025390625,1.904296875q0.3369140625-0.6591796875,0.8642578125-1.4208984375t1.201171875-1.40625t1.46484375-1.0693359375t1.611328125-0.4248046875q0.05859375,0,0.2197265625,0.0439453125t0.30029296875,0.12451171875t0.16845703125,0.18310546875t-0.1611328125,0.1904296875q-0.05859375,0.17578125-0.2490234375,0.21240234375t-0.3369140625,0.03662109375q-0.087890625,0-0.2783203125-0.0732421875q-1.083984375,0.5712890625-1.845703125,1.552734375t-1.2451171875,2.17529296875t-0.703125,2.51953125t-0.2197265625,2.58544921875q0,0.6298828125-0.28564453125,0.76171875t-0.91552734375,0.1318359375q-0.3369140625,0-0.71044921875-0.0732421875t-0.52001953125-0.46875q-0.263671875-0.8349609375-0.43212890625-1.9189453125t-0.25634765625-2.23388671875t-0.12451171875-2.26318359375t-0.03662109375-2.0068359375z"/><path fill="#" d=""/></svg>
